<mxfile host="app.diagrams.net" modified="2020-08-28T15:32:46.681Z" agent="5.0 (X11; Linux x86_64) AppleWebKit/537.36 (KHTML, like Gecko) Chrome/85.0.4183.83 Safari/537.36" etag="uZKWgeIchhoT3gLTGcDl" version="13.6.5" type="github">
  <diagram id="C5RBs43oDa-KdzZeNtuy" name="Page-1">
    <mxGraphModel dx="1355" dy="746" grid="1" gridSize="10" guides="1" tooltips="1" connect="1" arrows="1" fold="1" page="1" pageScale="1" pageWidth="1169" pageHeight="827" math="0" shadow="0">
      <root>
        <mxCell id="WIyWlLk6GJQsqaUBKTNV-0" />
        <mxCell id="WIyWlLk6GJQsqaUBKTNV-1" parent="WIyWlLk6GJQsqaUBKTNV-0" />
        <mxCell id="M2IYM9HM1CZZDRGEZR64-4" style="edgeStyle=orthogonalEdgeStyle;rounded=0;orthogonalLoop=1;jettySize=auto;html=1;entryX=0;entryY=0.5;entryDx=0;entryDy=0;startArrow=block;startFill=1;endArrow=block;endFill=1;" edge="1" parent="WIyWlLk6GJQsqaUBKTNV-1" source="WIyWlLk6GJQsqaUBKTNV-3" target="M2IYM9HM1CZZDRGEZR64-1">
          <mxGeometry relative="1" as="geometry" />
        </mxCell>
        <mxCell id="M2IYM9HM1CZZDRGEZR64-5" style="edgeStyle=orthogonalEdgeStyle;rounded=0;orthogonalLoop=1;jettySize=auto;html=1;entryX=0;entryY=0.517;entryDx=0;entryDy=0;entryPerimeter=0;" edge="1" parent="WIyWlLk6GJQsqaUBKTNV-1" source="WIyWlLk6GJQsqaUBKTNV-3" target="zeEc325Slxp-Knw5ex-K-8">
          <mxGeometry relative="1" as="geometry" />
        </mxCell>
        <mxCell id="WIyWlLk6GJQsqaUBKTNV-3" value="&lt;font style=&quot;font-size: 16px&quot;&gt;PROXY&lt;/font&gt;" style="rounded=1;whiteSpace=wrap;html=1;fontSize=12;glass=0;strokeWidth=1;shadow=0;fillColor=#f8cecc;strokeColor=#b85450;" parent="WIyWlLk6GJQsqaUBKTNV-1" vertex="1">
          <mxGeometry x="271" y="70" width="201" height="180" as="geometry" />
        </mxCell>
        <mxCell id="WIyWlLk6GJQsqaUBKTNV-7" value="Things" style="rounded=1;whiteSpace=wrap;html=1;fontSize=12;glass=0;strokeWidth=1;shadow=0;fillColor=#dae8fc;strokeColor=#6c8ebf;" parent="WIyWlLk6GJQsqaUBKTNV-1" vertex="1">
          <mxGeometry x="511" width="121" height="40" as="geometry" />
        </mxCell>
        <mxCell id="zeEc325Slxp-Knw5ex-K-0" value="" style="endArrow=classic;startArrow=classic;html=1;" parent="WIyWlLk6GJQsqaUBKTNV-1" source="WIyWlLk6GJQsqaUBKTNV-7" edge="1">
          <mxGeometry width="50" height="50" relative="1" as="geometry">
            <mxPoint x="581" y="410" as="sourcePoint" />
            <mxPoint x="471" y="90" as="targetPoint" />
            <Array as="points">
              <mxPoint x="571" y="88" />
            </Array>
          </mxGeometry>
        </mxCell>
        <mxCell id="zeEc325Slxp-Knw5ex-K-1" value="mProxy" style="rounded=1;whiteSpace=wrap;html=1;fillColor=#a20025;strokeColor=#6F0000;fontColor=#ffffff;" parent="WIyWlLk6GJQsqaUBKTNV-1" vertex="1">
          <mxGeometry x="401" y="210" width="51" height="20" as="geometry" />
        </mxCell>
        <mxCell id="zeEc325Slxp-Knw5ex-K-2" value="MQTT BROKER" style="rounded=1;whiteSpace=wrap;html=1;align=center;fillColor=#e1d5e7;strokeColor=#9673a6;" parent="WIyWlLk6GJQsqaUBKTNV-1" vertex="1">
          <mxGeometry x="651" y="90" width="209" height="100" as="geometry" />
        </mxCell>
        <mxCell id="zeEc325Slxp-Knw5ex-K-8" value="NATS" style="shape=cylinder2;whiteSpace=wrap;html=1;boundedLbl=1;backgroundOutline=1;size=15;direction=south;fillColor=#d5e8d4;strokeColor=#82b366;" parent="WIyWlLk6GJQsqaUBKTNV-1" vertex="1">
          <mxGeometry x="260" y="400" width="230" height="40" as="geometry" />
        </mxCell>
        <mxCell id="zeEc325Slxp-Knw5ex-K-10" value="" style="endArrow=classic;startArrow=classic;html=1;" parent="WIyWlLk6GJQsqaUBKTNV-1" edge="1">
          <mxGeometry width="50" height="50" relative="1" as="geometry">
            <mxPoint x="471" y="130" as="sourcePoint" />
            <mxPoint x="650" y="130" as="targetPoint" />
          </mxGeometry>
        </mxCell>
        <mxCell id="zeEc325Slxp-Knw5ex-K-19" value="" style="endArrow=classic;startArrow=classic;html=1;" parent="WIyWlLk6GJQsqaUBKTNV-1" edge="1">
          <mxGeometry width="50" height="50" relative="1" as="geometry">
            <mxPoint x="100" y="133" as="sourcePoint" />
            <mxPoint x="271" y="133" as="targetPoint" />
          </mxGeometry>
        </mxCell>
        <mxCell id="zeEc325Slxp-Knw5ex-K-21" value="mTLS&lt;br&gt;Termination" style="text;html=1;strokeColor=none;fillColor=none;align=left;verticalAlign=middle;whiteSpace=wrap;rounded=0;" parent="WIyWlLk6GJQsqaUBKTNV-1" vertex="1">
          <mxGeometry x="271" y="120" width="40" height="30" as="geometry" />
        </mxCell>
        <mxCell id="O-a-SJ8F_HgMR-lHYPED-0" value="Authorization&lt;br&gt;" style="text;html=1;align=center;verticalAlign=middle;resizable=0;points=[];autosize=1;" parent="WIyWlLk6GJQsqaUBKTNV-1" vertex="1">
          <mxGeometry x="480" y="70" width="90" height="20" as="geometry" />
        </mxCell>
        <mxCell id="O-a-SJ8F_HgMR-lHYPED-2" value="" style="shape=actor;whiteSpace=wrap;html=1;align=left;fillColor=#f5f5f5;strokeColor=#666666;fontColor=#333333;" parent="WIyWlLk6GJQsqaUBKTNV-1" vertex="1">
          <mxGeometry x="60" y="105" width="40" height="60" as="geometry" />
        </mxCell>
        <mxCell id="M2IYM9HM1CZZDRGEZR64-1" value="CoAP SERVER" style="rounded=1;whiteSpace=wrap;html=1;align=center;fillColor=#e1d5e7;strokeColor=#9673a6;" vertex="1" parent="WIyWlLk6GJQsqaUBKTNV-1">
          <mxGeometry x="651" y="220" width="209" height="100" as="geometry" />
        </mxCell>
      </root>
    </mxGraphModel>
  </diagram>
</mxfile>
